<svg xmlns="http://www.w3.org/2000/svg" xmlns:xlink="http://www.w3.org/1999/xlink" width="375" height="1990" viewBox="0 0 375 1990">
  <defs>
    <clipPath id="clip-path">
      <rect id="長方形_3939" data-name="長方形 3939" width="375" height="1990" transform="translate(486 11329)" fill="#fff" stroke="#707070" stroke-width="1"/>
    </clipPath>
    <clipPath id="clip-path-2">
      <rect id="長方形_3690" data-name="長方形 3690" width="514" height="856" fill="#f0fbff"/>
    </clipPath>
  </defs>
  <g id="sm_aboutFlow_bg" transform="translate(-486 -11329)" clip-path="url(#clip-path)">
    <g id="グループ_12517" data-name="グループ 12517" transform="translate(347 12893)" style="isolation: isolate">
      <g id="グループ_11786" data-name="グループ 11786" clip-path="url(#clip-path-2)">
        <path id="パス_48090" data-name="パス 48090" d="M179.508,856C-93.564,715.092,68.586,513.259,233.488,447.77,397.119,390.87,429.719,285.122,389.5,208.362,284.5-10.65,0,.086,0,.086H109.017s284.5-10.736,389.5,208.275c40.22,76.761,7.621,182.509-156.011,239.409C177.6,513.259,15.453,715.092,288.525,856Z" transform="translate(0 0)" fill="#f0fbff"/>
      </g>
    </g>
    <g id="グループ_12518" data-name="グループ 12518" transform="translate(922 12976) rotate(180)" style="isolation: isolate">
      <g id="グループ_11786-2" data-name="グループ 11786" clip-path="url(#clip-path-2)">
        <path id="パス_48090-2" data-name="パス 48090" d="M179.508,856C-93.564,715.092,68.586,513.259,233.487,447.77,397.119,390.87,429.718,285.122,389.5,208.362,284.5-10.65,0,.086,0,.086H109.017s284.5-10.736,389.5,208.275c40.22,76.761,7.621,182.509-156.011,239.409C177.6,513.259,5.179,706.021,319.276,856Z" transform="translate(0 0)" fill="#f0fbff"/>
      </g>
    </g>
    <g id="グループ_12519" data-name="グループ 12519" transform="translate(347 11268)" style="isolation: isolate">
      <g id="グループ_11786-3" data-name="グループ 11786" clip-path="url(#clip-path-2)">
        <path id="パス_48090-3" data-name="パス 48090" d="M179.508,856C-93.564,715.092,68.586,513.259,233.488,447.77,397.119,390.87,459.719,285.122,419.5,208.362,332.214-28.931,0,.086,0,.086l108.985,7.5S393.521-10.65,498.516,208.362c40.22,76.761,7.621,182.509-156.011,239.409C177.6,513.259,15.453,715.092,288.525,856Z" transform="translate(0 0)" fill="#f0fbff"/>
      </g>
    </g>
    <rect id="長方形_3940" data-name="長方形 3940" width="190" height="430" transform="translate(414 13319)" fill="#fff"/>
  </g>
</svg>
